<svg width="24" height="24" viewBox="0 0 24 24" fill="none" xmlns="http://www.w3.org/2000/svg">
<path d="M7.55556 7.58824H16.4444M7.55556 12.0588H14.2222M8.66667 17.6471H5.33333C4.44928 17.6471 3.60143 17.2938 2.97631 16.665C2.35119 16.0362 2 15.1834 2 14.2941V5.35294C2 4.46369 2.35119 3.61085 2.97631 2.98205C3.60143 2.35326 4.44928 2 5.33333 2H18.6667C19.5507 2 20.3986 2.35326 21.0237 2.98205C21.6488 3.61085 22 4.46369 22 5.35294V14.2941C22 15.1834 21.6488 16.0362 21.0237 16.665C20.3986 17.2938 19.5507 17.6471 18.6667 17.6471H15.3333L12 21L8.66667 17.6471Z" stroke="#343A46" stroke-width="1.5" stroke-linecap="round" stroke-linejoin="round"/>
</svg>
